<svg width="17" height="20" viewBox="0 0 17 20" fill="none" xmlns="http://www.w3.org/2000/svg">
<path d="M16.7453 3.83925C16.6697 3.75289 16.5771 3.68307 16.4732 3.63415C16.3694 3.58523 16.2565 3.55828 16.1418 3.55496C14.3592 3.50836 12.1036 1.60225 10.6122 0.854255C9.69102 0.393651 9.08283 0.0899471 8.62611 0.00994332C8.53338 -0.00356987 8.43915 -0.00330813 8.34649 0.0107201C7.88977 0.0907238 7.28159 0.394427 6.36115 0.855031C4.86982 1.60225 2.61418 3.50836 0.831576 3.55496C0.716751 3.55845 0.603866 3.58548 0.499917 3.63438C0.395967 3.68328 0.30317 3.75301 0.227276 3.83925C0.0699659 4.01722 -0.011198 4.24984 0.00124585 4.48705C0.384176 12.2723 3.17654 17.0904 8.07619 19.8905C8.20357 19.9627 8.34494 20 8.48552 20C8.62611 20 8.76748 19.9627 8.89564 19.8905C13.7953 17.0904 16.5869 12.2723 16.9706 4.48705C16.9837 4.24987 16.9028 4.01709 16.7453 3.83925V3.83925ZM12.8492 6.90114L8.71466 13.0024C8.56631 13.2214 8.33328 13.3667 8.10259 13.3667C7.87113 13.3667 7.61403 13.2401 7.45169 13.0777L4.53738 10.1626C4.44223 10.0671 4.38881 9.93783 4.38881 9.80302C4.38881 9.66821 4.44223 9.53889 4.53738 9.44339L5.25741 8.72181C5.35311 8.62704 5.48236 8.57387 5.61704 8.57387C5.75173 8.57387 5.88097 8.62704 5.97667 8.72181L7.8719 10.617L11.1645 5.75701C11.2407 5.64579 11.3578 5.56924 11.4902 5.54406C11.6226 5.51889 11.7596 5.54713 11.8713 5.62263L12.7141 6.19431C12.8254 6.27037 12.9021 6.38741 12.9274 6.51985C12.9528 6.65229 12.9246 6.78937 12.8492 6.90114V6.90114Z" fill="white"/>
</svg>
