<svg width="19" height="18" viewBox="0 0 19 18" fill="none" xmlns="http://www.w3.org/2000/svg">
<path d="M17.4665 3.98961C17.7723 3.98961 18.0201 3.74644 18.0201 3.44852V1.84611C18.0201 1.54737 17.7723 1.30394 17.4665 1.30394H16.2233V0.869381C16.2233 0.638854 16.1317 0.417764 15.9687 0.254732C15.8058 0.091699 15.5847 7.18825e-05 15.3542 0H0.869109C0.754953 -5.55317e-09 0.641916 0.0224894 0.536453 0.0661832C0.43099 0.109877 0.335168 0.173919 0.25446 0.254652C0.173753 0.335385 0.10974 0.431227 0.0660793 0.536704C0.0224184 0.64218 -3.55647e-05 0.755225 4.22821e-08 0.869381V17.1309C0.000286984 17.3613 0.091946 17.5822 0.254873 17.7451C0.417801 17.9081 0.638695 17.9997 0.869109 18H15.3539C15.5843 17.9997 15.8052 17.9081 15.9681 17.7451C16.1311 17.5822 16.2227 17.3613 16.223 17.1309V16.6782H17.4662C17.772 16.6782 18.0198 16.4358 18.0198 16.1371V14.5344C18.0198 14.2357 17.772 13.9922 17.4662 13.9922H16.223V12.4473H17.4662C17.772 12.4473 18.0198 12.2049 18.0198 11.9076V10.3049C18.0198 10.0061 17.772 9.76271 17.4662 9.76271H16.223V8.21777H17.4662C17.772 8.21777 18.0198 7.97461 18.0198 7.67668V6.07401C18.0198 5.77635 17.772 5.53291 17.4662 5.53291H16.223V3.98907H17.4665V3.98961ZM12.369 12.7089C12.369 13.0212 12.151 13.2749 11.8823 13.2749H4.33362C4.0647 13.2749 3.84702 13.0215 3.84702 12.7089V10.3765C3.84702 10.1444 3.96819 9.93593 4.15253 9.85027L7.1074 8.47395C6.40717 8.05187 5.92789 7.20282 5.92789 6.22284C5.92789 4.82185 6.90354 3.68653 8.10771 3.68653C9.31216 3.68653 10.2878 4.82185 10.2878 6.22284C10.2878 7.18845 9.82479 8.02693 9.14219 8.45606L12.067 9.85162C12.2497 9.93973 12.3692 10.1458 12.3692 10.3767V12.7089H12.369Z" fill="black" fill-opacity="0.75"/>
</svg>
