<svg width="15" height="14" viewBox="0 0 15 14" fill="none" xmlns="http://www.w3.org/2000/svg">
<path d="M0 1.82613C0 1.34181 0.192395 0.877325 0.53486 0.53486C0.877325 0.192395 1.34181 0 1.82613 0L12.7829 0C13.2672 0 13.7317 0.192395 14.0742 0.53486C14.4166 0.877325 14.609 1.34181 14.609 1.82613V9.13063C14.609 9.61495 14.4166 10.0794 14.0742 10.4219C13.7317 10.7644 13.2672 10.9568 12.7829 10.9568H10.5002C10.3585 10.9568 10.2187 10.9898 10.0919 11.0532C9.96511 11.1165 9.85483 11.2086 9.76978 11.322L8.03496 13.6348C7.94991 13.7482 7.83962 13.8402 7.71284 13.9036C7.58606 13.967 7.44625 14 7.30451 14C7.16276 14 7.02296 13.967 6.89617 13.9036C6.76939 13.8402 6.6591 13.7482 6.57406 13.6348L4.83924 11.322C4.75419 11.2086 4.6439 11.1165 4.51712 11.0532C4.39034 10.9898 4.25053 10.9568 4.10878 10.9568H1.82613C1.34181 10.9568 0.877325 10.7644 0.53486 10.4219C0.192395 10.0794 0 9.61495 0 9.13063V1.82613ZM4.56532 5.47838C4.56532 5.23622 4.46912 5.00398 4.29789 4.83275C4.12665 4.66151 3.89441 4.56532 3.65225 4.56532C3.41009 4.56532 3.17785 4.66151 3.00662 4.83275C2.83539 5.00398 2.73919 5.23622 2.73919 5.47838C2.73919 5.72054 2.83539 5.95278 3.00662 6.12401C3.17785 6.29525 3.41009 6.39144 3.65225 6.39144C3.89441 6.39144 4.12665 6.29525 4.29789 6.12401C4.46912 5.95278 4.56532 5.72054 4.56532 5.47838ZM8.21757 5.47838C8.21757 5.23622 8.12137 5.00398 7.95014 4.83275C7.77891 4.66151 7.54667 4.56532 7.30451 4.56532C7.06235 4.56532 6.83011 4.66151 6.65887 4.83275C6.48764 5.00398 6.39144 5.23622 6.39144 5.47838C6.39144 5.72054 6.48764 5.95278 6.65887 6.12401C6.83011 6.29525 7.06235 6.39144 7.30451 6.39144C7.54667 6.39144 7.77891 6.29525 7.95014 6.12401C8.12137 5.95278 8.21757 5.72054 8.21757 5.47838ZM10.9568 6.39144C11.1989 6.39144 11.4312 6.29525 11.6024 6.12401C11.7736 5.95278 11.8698 5.72054 11.8698 5.47838C11.8698 5.23622 11.7736 5.00398 11.6024 4.83275C11.4312 4.66151 11.1989 4.56532 10.9568 4.56532C10.7146 4.56532 10.4824 4.66151 10.3111 4.83275C10.1399 5.00398 10.0437 5.23622 10.0437 5.47838C10.0437 5.72054 10.1399 5.95278 10.3111 6.12401C10.4824 6.29525 10.7146 6.39144 10.9568 6.39144Z" fill="black" fill-opacity="0.75"/>
</svg>
