<svg width="20" height="18" viewBox="0 0 20 18" fill="none" xmlns="http://www.w3.org/2000/svg">
<path d="M9.9 9C9.36599 9 8.84397 9.15835 8.39996 9.45503C7.95595 9.75171 7.60988 10.1734 7.40552 10.6668C7.20117 11.1601 7.1477 11.703 7.25188 12.2267C7.35606 12.7505 7.61321 13.2316 7.99081 13.6092C8.36841 13.9868 8.84951 14.2439 9.37326 14.3481C9.89701 14.4523 10.4399 14.3988 10.9332 14.1945C11.4266 13.9901 11.8483 13.6441 12.145 13.2C12.4416 12.756 12.6 12.234 12.6 11.7C12.6 10.9839 12.3155 10.2972 11.8092 9.79081C11.3028 9.28446 10.6161 9 9.9 9ZM9.9 12.6C9.722 12.6 9.54799 12.5472 9.39999 12.4483C9.25198 12.3494 9.13663 12.2089 9.06851 12.0444C9.00039 11.88 8.98257 11.699 9.01729 11.5244C9.05202 11.3498 9.13774 11.1895 9.2636 11.0636C9.38947 10.9377 9.54984 10.852 9.72442 10.8173C9.899 10.7826 10.08 10.8004 10.2444 10.8685C10.4089 10.9366 10.5494 11.052 10.6483 11.2C10.7472 11.348 10.8 11.522 10.8 11.7C10.8 11.9387 10.7052 12.1676 10.5364 12.3364C10.3676 12.5052 10.1387 12.6 9.9 12.6ZM9.261 6.939C9.34659 7.02094 9.44752 7.08517 9.558 7.128C9.66573 7.17561 9.78222 7.20021 9.9 7.20021C10.0178 7.20021 10.1343 7.17561 10.242 7.128C10.3525 7.08517 10.4534 7.02094 10.539 6.939L12.6 4.914C12.7742 4.73975 12.8721 4.50342 12.8721 4.257C12.8721 4.01058 12.7742 3.77425 12.6 3.6C12.4258 3.42575 12.1894 3.32786 11.943 3.32786C11.6966 3.32786 11.4602 3.42575 11.286 3.6L10.8 4.131V0.9C10.8 0.661305 10.7052 0.432387 10.5364 0.263604C10.3676 0.0948211 10.1387 0 9.9 0C9.6613 0 9.43239 0.0948211 9.2636 0.263604C9.09482 0.432387 9 0.661305 9 0.9V4.131L8.514 3.6C8.33975 3.42575 8.10342 3.32786 7.857 3.32786C7.61058 3.32786 7.37425 3.42575 7.2 3.6C7.02575 3.77425 6.92786 4.01058 6.92786 4.257C6.92786 4.50342 7.02575 4.73975 7.2 4.914L9.261 6.939ZM16.2 11.7C16.2 11.522 16.1472 11.348 16.0483 11.2C15.9494 11.052 15.8089 10.9366 15.6444 10.8685C15.48 10.8004 15.299 10.7826 15.1244 10.8173C14.9498 10.852 14.7895 10.9377 14.6636 11.0636C14.5377 11.1895 14.452 11.3498 14.4173 11.5244C14.3826 11.699 14.4004 11.88 14.4685 12.0444C14.5366 12.2089 14.652 12.3494 14.8 12.4483C14.948 12.5472 15.122 12.6 15.3 12.6C15.5387 12.6 15.7676 12.5052 15.9364 12.3364C16.1052 12.1676 16.2 11.9387 16.2 11.7ZM17.1 5.4H14.4C14.1613 5.4 13.9324 5.49482 13.7636 5.6636C13.5948 5.83239 13.5 6.06131 13.5 6.3C13.5 6.53869 13.5948 6.76761 13.7636 6.9364C13.9324 7.10518 14.1613 7.2 14.4 7.2H17.1C17.3387 7.2 17.5676 7.29482 17.7364 7.4636C17.9052 7.63239 18 7.8613 18 8.1V15.3C18 15.5387 17.9052 15.7676 17.7364 15.9364C17.5676 16.1052 17.3387 16.2 17.1 16.2H2.7C2.46131 16.2 2.23239 16.1052 2.0636 15.9364C1.89482 15.7676 1.8 15.5387 1.8 15.3V8.1C1.8 7.8613 1.89482 7.63239 2.0636 7.4636C2.23239 7.29482 2.46131 7.2 2.7 7.2H5.4C5.63869 7.2 5.86761 7.10518 6.0364 6.9364C6.20518 6.76761 6.3 6.53869 6.3 6.3C6.3 6.06131 6.20518 5.83239 6.0364 5.6636C5.86761 5.49482 5.63869 5.4 5.4 5.4H2.7C1.98392 5.4 1.29716 5.68446 0.790812 6.19081C0.284463 6.69716 0 7.38392 0 8.1V15.3C0 16.0161 0.284463 16.7028 0.790812 17.2092C1.29716 17.7155 1.98392 18 2.7 18H17.1C17.8161 18 18.5028 17.7155 19.0092 17.2092C19.5155 16.7028 19.8 16.0161 19.8 15.3V8.1C19.8 7.38392 19.5155 6.69716 19.0092 6.19081C18.5028 5.68446 17.8161 5.4 17.1 5.4ZM3.6 11.7C3.6 11.878 3.65278 12.052 3.75168 12.2C3.85057 12.348 3.99113 12.4634 4.15558 12.5315C4.32004 12.5996 4.501 12.6174 4.67558 12.5827C4.85016 12.548 5.01053 12.4623 5.1364 12.3364C5.26226 12.2105 5.34798 12.0502 5.38271 11.8756C5.41743 11.701 5.39961 11.52 5.33149 11.3556C5.26337 11.1911 5.14802 11.0506 5.00001 10.9517C4.85201 10.8528 4.678 10.8 4.5 10.8C4.2613 10.8 4.03239 10.8948 3.8636 11.0636C3.69482 11.2324 3.6 11.4613 3.6 11.7Z" fill="black" fill-opacity="0.75"/>
</svg>
