<svg width="19" height="14" viewBox="0 0 19 14" fill="none" xmlns="http://www.w3.org/2000/svg">
<path d="M17.1111 0H1.55556C0.7 0 0 0.7 0 1.55556V12.4444C0 13.3 0.7 14 1.55556 14H17.1111C17.9667 14 18.6589 13.3 18.6589 12.4444L18.6667 1.55556C18.6667 0.7 17.9667 0 17.1111 0ZM6.22222 2.33333C7.51333 2.33333 8.55556 3.37556 8.55556 4.66667C8.55556 5.95778 7.51333 7 6.22222 7C4.93111 7 3.88889 5.95778 3.88889 4.66667C3.88889 3.37556 4.93111 2.33333 6.22222 2.33333ZM10.8889 11.6667H1.55556V10.8889C1.55556 9.33333 4.66667 8.47778 6.22222 8.47778C7.77778 8.47778 10.8889 9.33333 10.8889 10.8889V11.6667ZM13.8833 8.55556H14.9644C15.0889 8.55556 15.1978 8.61 15.2756 8.71111L16.1311 9.83889C16.2478 9.99444 16.2322 10.2122 16.0922 10.3444L15.0344 11.4022C14.8944 11.5422 14.6611 11.5578 14.5133 11.4333C13.6233 10.6768 12.9788 9.67221 12.6622 8.54778C12.3719 7.53371 12.3719 6.45852 12.6622 5.44444C12.9769 4.31915 13.6217 3.31403 14.5133 2.55889C14.6689 2.42667 14.8944 2.45 15.0344 2.59L16.0922 3.64778C16.2322 3.78778 16.2478 4.00556 16.1311 4.15333L15.2756 5.28111C15.2402 5.33034 15.1934 5.37023 15.1392 5.39733C15.085 5.42444 15.025 5.43794 14.9644 5.43667H13.8833C13.7122 5.92667 13.6111 6.44778 13.6111 6.99222C13.6111 7.53667 13.7122 8.06556 13.8833 8.55556Z" fill="black" fill-opacity="0.75"/>
</svg>
