<svg width="20" height="18" viewBox="0 0 20 18" fill="none" xmlns="http://www.w3.org/2000/svg">
<path d="M16.4638 18H2.90537C2.64852 18 2.40219 17.898 2.22057 17.7163C2.03895 17.5347 1.93691 17.2884 1.93691 17.0315V9.2839H0L8.99889 0.284035C9.08884 0.193992 9.19565 0.122559 9.31322 0.0738222C9.43078 0.0250854 9.55681 0 9.68408 0C9.81135 0 9.93737 0.0250854 10.0549 0.0738222C10.1725 0.122559 10.2793 0.193992 10.3693 0.284035L19.3691 9.2839H17.4322V17.0315C17.4322 17.2884 17.3302 17.5347 17.1486 17.7163C16.9669 17.898 16.7206 18 16.4638 18ZM7.74765 11.2208H11.6215V16.0631H15.4953V8.14887L9.68456 2.33813L3.87382 8.14887V16.0631H7.74765V11.2208Z" fill="white" fill-opacity="0.75"/>
</svg>
