<svg width="28" height="28" viewBox="0 0 28 28" fill="none" xmlns="http://www.w3.org/2000/svg">
<path d="M14 0C11.2311 0 8.52431 0.821086 6.22202 2.35943C3.91973 3.89777 2.12532 6.08427 1.06569 8.64243C0.00606596 11.2006 -0.271181 14.0155 0.269012 16.7313C0.809205 19.447 2.14258 21.9416 4.10051 23.8995C6.05845 25.8574 8.55301 27.1908 11.2687 27.731C13.9845 28.2712 16.7994 27.9939 19.3576 26.9343C21.9157 25.8747 24.1022 24.0803 25.6406 21.778C27.1789 19.4757 28 16.7689 28 14C28 10.287 26.525 6.72601 23.8995 4.1005C21.274 1.475 17.713 0 14 0V0ZM13.91 10.45C13.6872 10.45 13.4736 10.5385 13.316 10.696C13.1585 10.8536 13.07 11.0672 13.07 11.29V16.43C13.07 17.3715 12.696 18.2745 12.0302 18.9402C11.3645 19.606 10.4615 19.98 9.52001 19.98C8.57849 19.98 7.67553 19.606 7.00978 18.9402C6.34402 18.2745 5.97001 17.3715 5.97001 16.43V14.09H8.68001V16.33C8.68001 16.5528 8.76851 16.7664 8.92604 16.924C9.08357 17.0815 9.29723 17.17 9.52001 17.17C9.74279 17.17 9.95645 17.0815 10.114 16.924C10.2715 16.7664 10.36 16.5528 10.36 16.33V11.33C10.4082 10.4224 10.8027 9.5678 11.4623 8.94239C12.1218 8.31697 12.9961 7.96835 13.905 7.96835C14.8139 7.96835 15.6882 8.31697 16.3477 8.94239C17.0073 9.5678 17.4018 10.4224 17.45 11.33V12.33L15.87 12.84L14.75 12.33V11.33C14.754 11.2167 14.7353 11.1038 14.695 10.9978C14.6547 10.8919 14.5937 10.795 14.5154 10.713C14.4371 10.631 14.3432 10.5655 14.2393 10.5204C14.1353 10.4752 14.0234 10.4513 13.91 10.45V10.45ZM21.84 16.45C21.7918 17.3576 21.3973 18.2122 20.7377 18.8376C20.0782 19.463 19.2039 19.8117 18.295 19.8117C17.3861 19.8117 16.5118 19.463 15.8523 18.8376C15.1927 18.2122 14.7982 17.3576 14.75 16.45V14.14L15.87 14.65L17.45 14.14V16.43C17.45 16.6528 17.5385 16.8664 17.696 17.024C17.8536 17.1815 18.0672 17.27 18.29 17.27C18.5128 17.27 18.7264 17.1815 18.884 17.024C19.0415 16.8664 19.13 16.6528 19.13 16.43V14.19H21.84V16.45Z" fill="#C4C4C4"/>
</svg>
