<svg width="9" height="14" viewBox="0 0 9 14" fill="none" xmlns="http://www.w3.org/2000/svg">
<path d="M7.63636 14H1.27273C0.935179 14 0.611456 13.8659 0.372773 13.6272C0.13409 13.3885 0 13.0648 0 12.7273V1.21736C0.0142753 0.889503 0.154642 0.579828 0.391795 0.352991C0.628948 0.126154 0.944556 -0.000310061 1.27273 5.70895e-07H7.63636C7.97391 5.70895e-07 8.29764 0.134091 8.53632 0.372774C8.775 0.611456 8.90909 0.93518 8.90909 1.27273V12.7273C8.90909 13.0648 8.775 13.3885 8.53632 13.6272C8.29764 13.8659 7.97391 14 7.63636 14ZM1.27273 1.27273V12.7273H7.63636V1.27273H6.36364C6.36364 1.61028 6.22955 1.934 5.99086 2.17268C5.75218 2.41136 5.42846 2.54546 5.09091 2.54546H3.81818C3.48063 2.54546 3.15691 2.41136 2.91823 2.17268C2.67955 1.934 2.54545 1.61028 2.54545 1.27273H1.27273Z" fill="black" fill-opacity="0.75"/>
</svg>
