<svg width="13" height="14" viewBox="0 0 13 14" fill="none" xmlns="http://www.w3.org/2000/svg">
<path d="M9.625 8.75L9.00813 9.36687L10.5744 10.9375H3.5C3.03587 10.9375 2.59075 10.7531 2.26256 10.4249C1.93437 10.0967 1.75 9.65163 1.75 9.1875C1.75 8.72337 1.93437 8.27825 2.26256 7.95006C2.59075 7.62187 3.03587 7.4375 3.5 7.4375H8.75C9.44619 7.4375 10.1139 7.16094 10.6062 6.66866C11.0984 6.17637 11.375 5.50869 11.375 4.8125C11.375 4.11631 11.0984 3.44863 10.6062 2.95634C10.1139 2.46406 9.44619 2.1875 8.75 2.1875H1.67562L3.24187 0.616875L2.625 0L0 2.625L2.625 5.25L3.24187 4.63313L1.67562 3.0625H8.75C9.21413 3.0625 9.65925 3.24687 9.98744 3.57506C10.3156 3.90325 10.5 4.34837 10.5 4.8125C10.5 5.27663 10.3156 5.72175 9.98744 6.04994C9.65925 6.37813 9.21413 6.5625 8.75 6.5625H3.5C2.80381 6.5625 2.13613 6.83906 1.64384 7.33134C1.15156 7.82363 0.875 8.49131 0.875 9.1875C0.875 9.88369 1.15156 10.5514 1.64384 11.0437C2.13613 11.5359 2.80381 11.8125 3.5 11.8125H10.5744L9.00813 13.3831L9.625 14L12.25 11.375L9.625 8.75Z" fill="black"/>
</svg>
