<svg width="18" height="21" viewBox="0 0 18 21" fill="none" xmlns="http://www.w3.org/2000/svg">
<path d="M7.14615 1.24988C7.29556 0.880589 7.55185 0.564335 7.88217 0.34165C8.21249 0.118966 8.60178 0 9.00015 0C9.39852 0 9.78781 0.118966 10.1181 0.34165C10.4484 0.564335 10.7047 0.880589 10.8541 1.24988C12.3329 1.65656 13.6373 2.53743 14.5669 3.75721C15.4966 4.97699 16.0001 6.46822 16.0002 8.00188V12.6989L17.8322 15.4469C17.9326 15.5975 17.9903 15.7725 17.9991 15.9534C18.0079 16.1342 17.9674 16.314 17.882 16.4736C17.7966 16.6333 17.6695 16.7667 17.5142 16.8598C17.3588 16.9528 17.1812 17.0019 17.0002 17.0019H12.4651C12.3447 17.835 11.9282 18.5968 11.2919 19.1478C10.6555 19.6988 9.84191 20.0021 9.00015 20.0021C8.15839 20.0021 7.34481 19.6988 6.70845 19.1478C6.07209 18.5968 5.65555 17.835 5.53515 17.0019H1.00015C0.819107 17.0019 0.641453 16.9528 0.486141 16.8598C0.330829 16.7667 0.203685 16.6333 0.118276 16.4736C0.032866 16.314 -0.00760575 16.1342 0.00117785 15.9534C0.00996145 15.7725 0.067671 15.5975 0.16815 15.4469L2.00015 12.6989V8.00188C2.00015 4.77788 4.18015 2.06188 7.14615 1.24988ZM7.58615 17.0019C7.68943 17.2945 7.88093 17.5479 8.13427 17.7272C8.38761 17.9064 8.69031 18.0027 9.00065 18.0027C9.31099 18.0027 9.61369 17.9064 9.86703 17.7272C10.1204 17.5479 10.3119 17.2945 10.4151 17.0019H7.58515H7.58615ZM9.00015 3.00188C7.67407 3.00188 6.4023 3.52866 5.46462 4.46634C4.52693 5.40403 4.00015 6.67579 4.00015 8.00188V13.0019C4.00019 13.1994 3.94174 13.3925 3.83215 13.5569L2.86915 15.0019H15.1301L14.1671 13.5569C14.0579 13.3924 13.9998 13.1993 14.0001 13.0019V8.00188C14.0001 6.67579 13.4734 5.40403 12.5357 4.46634C11.598 3.52866 10.3262 3.00188 9.00015 3.00188Z" fill="black"/>
</svg>
