<svg width="20" height="14" viewBox="0 0 20 14" fill="none" xmlns="http://www.w3.org/2000/svg">
<path d="M15.75 8.75V1.75C15.75 0.7875 14.9625 0 14 0H1.75C0.7875 0 0 0.7875 0 1.75V8.75C0 9.7125 0.7875 10.5 1.75 10.5H14C14.9625 10.5 15.75 9.7125 15.75 8.75ZM14 8.75H1.75V1.75H14V8.75ZM7.875 2.625C6.4225 2.625 5.25 3.7975 5.25 5.25C5.25 6.7025 6.4225 7.875 7.875 7.875C9.3275 7.875 10.5 6.7025 10.5 5.25C10.5 3.7975 9.3275 2.625 7.875 2.625ZM19.25 2.625V12.25C19.25 13.2125 18.4625 14 17.5 14H2.625V12.25H17.5V2.625H19.25Z" fill="black" fill-opacity="0.75"/>
</svg>
