<svg width="15" height="15" viewBox="0 0 15 15" fill="none" xmlns="http://www.w3.org/2000/svg">
<path d="M14.8088 0.182012C14.7245 0.0980622 14.6179 0.0399384 14.5017 0.0144748C14.3854 -0.0109888 14.2643 -0.00273367 14.1526 0.0382696L0.403324 5.03801C0.284748 5.08299 0.182661 5.16297 0.110621 5.26735C0.0385821 5.37172 0 5.49554 0 5.62236C0 5.74918 0.0385821 5.873 0.110621 5.97737C0.182661 6.08174 0.284748 6.16173 0.403324 6.2067L5.7718 8.35034L9.73409 4.37555L10.6153 5.25675L6.63425 9.2378L8.78414 14.6063C8.83046 14.7226 8.91062 14.8223 9.01425 14.8925C9.11788 14.9627 9.2402 15.0001 9.36536 15C9.49166 14.9974 9.61421 14.9566 9.71685 14.883C9.81949 14.8093 9.89741 14.7063 9.94033 14.5875L14.9401 0.838229C14.9827 0.727657 14.9929 0.607259 14.9697 0.491074C14.9465 0.374888 14.8907 0.267702 14.8088 0.182012Z" fill="white"/>
</svg>
