<svg width="17" height="14" viewBox="0 0 17 14" fill="none" xmlns="http://www.w3.org/2000/svg">
<path d="M16.0265 8.82014L12.6471 7.00008L16.0265 5.18002C16.1191 5.13004 16.1964 5.05593 16.2503 4.96556C16.3043 4.87518 16.3327 4.77191 16.3327 4.66667C16.3327 4.56143 16.3043 4.45816 16.2503 4.36778C16.1964 4.27741 16.1191 4.20331 16.0265 4.15332L8.44287 0.0698548C8.35792 0.0240052 8.2629 0 8.16636 0C8.06983 0 7.97481 0.0240052 7.88985 0.0698548L0.306275 4.15332C0.213667 4.20331 0.136305 4.27741 0.0823865 4.36778C0.0284676 4.45816 0 4.56143 0 4.66667C0 4.77191 0.0284676 4.87518 0.0823865 4.96556C0.136305 5.05593 0.213667 5.13004 0.306275 5.18002L3.68563 7.00008L0.306275 8.82014C0.213667 8.87012 0.136305 8.94423 0.0823865 9.0346C0.0284676 9.12498 0 9.22825 0 9.33349C0 9.43873 0.0284676 9.542 0.0823865 9.63238C0.136305 9.72275 0.213667 9.79685 0.306275 9.84684L7.88985 13.9303C7.97484 13.9761 8.06985 14 8.16636 14C8.26288 14 8.35789 13.9761 8.44287 13.9303L16.0265 9.84684C16.1191 9.79685 16.1964 9.72275 16.2503 9.63238C16.3043 9.542 16.3327 9.43873 16.3327 9.33349C16.3327 9.22825 16.3043 9.12498 16.2503 9.0346C16.1964 8.94423 16.1191 8.87012 16.0265 8.82014ZM8.16636 1.24589L14.5191 4.66667L8.16636 8.08745L1.81366 4.66667L8.16636 1.24589ZM8.16636 12.7543L1.81366 9.33349L4.91651 7.66277L7.88985 9.26349C7.97484 9.30923 8.06985 9.33318 8.16636 9.33318C8.26288 9.33318 8.35789 9.30923 8.44287 9.26349L11.4162 7.66218L14.5197 9.33349L8.16636 12.7543Z" fill="black" fill-opacity="0.75"/>
</svg>
