<svg width="16" height="16" viewBox="0 0 16 16" fill="none" xmlns="http://www.w3.org/2000/svg">
<path d="M14 0C14.5304 0 15.0391 0.210714 15.4142 0.585787C15.7893 0.96086 16 1.46957 16 2L16 14C16 14.5304 15.7893 15.0391 15.4142 15.4142C15.0391 15.7893 14.5304 16 14 16H2C1.46957 16 0.96086 15.7893 0.585787 15.4142C0.210714 15.0391 0 14.5304 0 14V2C0 1.46957 0.210714 0.96086 0.585787 0.585787C0.96086 0.210714 1.46957 0 2 0L14 0ZM5.904 10.803L10 6.707V9.475C10 9.60761 10.0527 9.73479 10.1464 9.82855C10.2402 9.92232 10.3674 9.975 10.5 9.975C10.6326 9.975 10.7598 9.92232 10.8536 9.82855C10.9473 9.73479 11 9.60761 11 9.475V5.5C11 5.36739 10.9473 5.24021 10.8536 5.14645C10.7598 5.05268 10.6326 5 10.5 5L6.525 5C6.39239 5 6.26521 5.05268 6.17145 5.14645C6.07768 5.24021 6.025 5.36739 6.025 5.5C6.025 5.63261 6.07768 5.75979 6.17145 5.85355C6.26521 5.94732 6.39239 6 6.525 6L9.293 6L5.197 10.096C5.14924 10.1421 5.11115 10.1973 5.08495 10.2583C5.05874 10.3193 5.04495 10.3849 5.04437 10.4513C5.0438 10.5177 5.05645 10.5835 5.08159 10.645C5.10673 10.7064 5.14386 10.7623 5.1908 10.8092C5.23775 10.8561 5.29358 10.8933 5.35502 10.9184C5.41647 10.9436 5.48231 10.9562 5.5487 10.9556C5.61509 10.955 5.6807 10.9413 5.7417 10.9151C5.8027 10.8888 5.85788 10.8508 5.904 10.803V10.803Z" fill="#00A81B" fill-opacity="0.75"/>
</svg>
