<svg width="19" height="18" viewBox="0 0 19 18" fill="none" xmlns="http://www.w3.org/2000/svg">
<path d="M18 4.28V2C18 0.9 17.1 0 16 0H2C1.46957 0 0.960859 0.210714 0.585786 0.585786C0.210714 0.960859 0 1.46957 0 2V16C0 16.5304 0.210714 17.0391 0.585786 17.4142C0.960859 17.7893 1.46957 18 2 18H16C17.1 18 18 17.1 18 16V13.72C18.3023 13.5455 18.5536 13.2949 18.7291 12.9932C18.9045 12.6914 18.9979 12.349 19 12V6C18.9979 5.65097 18.9045 5.30857 18.7291 5.00683C18.5536 4.70509 18.3023 4.45451 18 4.28ZM17 6V12H10V6H17ZM2 16V2H16V4H10C8.9 4 8 4.9 8 6V12C8 13.1 8.9 14 10 14H16V16H2Z" fill="black" fill-opacity="0.75"/>
<path d="M13 10.5C13.8284 10.5 14.5 9.82843 14.5 9C14.5 8.17157 13.8284 7.5 13 7.5C12.1716 7.5 11.5 8.17157 11.5 9C11.5 9.82843 12.1716 10.5 13 10.5Z" fill="black" fill-opacity="0.75"/>
</svg>
